<svg width="648" height="427" viewBox="0 0 648 427" fill="none" xmlns="http://www.w3.org/2000/svg">
<g clip-path="url(#clip0_1582_69)">
<rect width="648" height="427" fill="#007AC2"/>
<path d="M599.399 288.728C599.399 288.728 611.036 276.84 603.645 236.012L507.723 236.012C507.723 236.012 506.308 257.599 508.509 288.728L599.399 288.728Z" fill="#2D3B5C"/>
<path d="M550.763 451.298L565.545 451.298L565.545 308.635L550.763 308.635L550.763 451.298Z" fill="#211F1D"/>
<path d="M532.039 328.047L584.246 328.047L584.246 306.929L532.039 306.929L532.039 328.047Z" fill="#211F1D"/>
<path d="M494.534 314.222L626.309 314.222L626.309 310.624C626.309 298.579 616.559 288.881 604.451 288.881L516.549 288.881C504.441 288.881 494.691 298.579 494.691 310.624L494.691 314.222L494.534 314.222Z" fill="#F16A51"/>
<path d="M540.427 250.563C492.309 253.535 402.834 264.955 386.481 294.832C381.606 303.749 378.775 315.794 386.323 322.989C415.572 350.677 423.906 362.253 475.012 411.84C475.326 412.153 474.54 411.997 475.012 411.84L495.14 399.952C495.926 399.639 495.611 400.734 495.14 399.952C452.997 333.626 443.719 324.397 427.837 315.012C442.933 307.659 486.963 296.553 535.081 291.86C545.617 290.922 553.322 281.536 552.221 271.055C551.278 260.575 550.963 249.938 540.427 250.563Z" fill="#1E334A"/>
<path d="M597.981 255.103C596.565 245.404 581.941 243.684 572.035 244.309C463.533 251.192 448.122 266.366 443.09 272.31C439.002 277.159 438.845 283.26 438.058 289.361C434.284 322.68 429.252 380.871 421.39 428.738C429.41 430.146 444.506 432.336 455.513 434.213C455.513 434.213 472.024 355.843 476.899 308.288C496.712 304.065 550.649 299.216 594.049 290.769C608.831 287.953 599.868 269.181 597.981 255.103Z" fill="#21385E"/>
<path d="M416.228 420.068L413.548 436.117L458.224 443.5L460.905 427.452L416.228 420.068Z" fill="#42557D"/>
<path d="M518.262 425.611L497.977 401.209L477.377 413.879L488.542 425.768L465.112 446.103C461.024 448.919 458.979 453.456 459.766 458.305C459.923 459.087 460.237 459.869 460.709 460.495L464.169 465.813C464.169 465.813 517.004 433.276 517.161 432.651C517.319 432.651 520.621 428.74 518.262 425.611Z" fill="#211F1D"/>
<path d="M495.484 386.397L462.444 408.723L471.633 422.18L504.673 399.854L495.484 386.397Z" fill="#42557D"/>
<path d="M490.959 222.867L489.356 226.073L472.321 260.047L459.837 237.776L477.397 200.782C487.775 175.284 509 138.706 509 138.706L512.67 135.898L528.668 133.395C531.184 139.809 525.366 141.06 496.432 211.14C494.702 215.676 490.959 222.867 490.959 222.867Z" fill="#0C0B0A"/>
<path d="M565.755 124.166L568.428 124.791C580.537 127.607 589.657 137.306 591.701 149.507L607.741 248.839C536.979 266.828 503.642 250.403 503.642 250.403L506.63 151.384C506.001 139.965 512.762 129.328 523.455 124.948L565.755 124.166Z" fill="#211F1D"/>
<path d="M555.693 133.39L532.578 129.792L531.634 80.0483L554.907 83.6462L555.693 133.39Z" fill="#E6B59C"/>
<path d="M527.076 124.791L562.928 124.166C562.928 124.166 561.199 144.814 539.813 143.093C520.157 141.529 527.076 124.791 527.076 124.791Z" fill="#E6B59C"/>
<path d="M485.45 256.04C488.258 263.004 484.502 270.928 477.21 273.869C469.918 276.809 461.803 273.504 459.141 266.482C456.333 259.518 460.089 251.594 467.381 248.653C474.672 245.713 482.788 249.018 485.45 256.04Z" fill="#DCC0AC"/>
<path d="M496.419 258.865L482.652 264.248C479.152 265.659 475.065 263.934 473.72 260.597C472.316 257.116 474.121 253.183 477.825 251.858L491.592 246.474C495.092 245.063 499.179 246.788 500.525 250.125C501.725 253.521 499.919 257.453 496.419 258.865Z" fill="#DCC0AC"/>
<path d="M496.97 260.297L485.061 246.987L550.36 214.197L564.827 148.34C567.657 141.301 575.834 137.86 583.068 140.519C590.301 143.178 593.918 151 591.245 157.883L573.475 231.873C571.431 236.879 566.714 240.164 561.21 240.476L496.97 260.297Z" fill="#0C0B0A"/>
<path d="M540.432 117.598L537.334 118.162C523.222 120.658 509.761 111.436 507.132 97.4322L499.648 56.45L553.844 46.5069L561.329 87.489C563.994 101.646 554.544 115.101 540.432 117.598Z" fill="#E6B59C"/>
<path d="M556.582 76.8754C556.582 76.8754 542.854 69.9649 537.828 53.3082C537.828 53.3082 495.871 74.8474 490.183 56.7392C484.969 39.966 502.591 30.3828 518.032 32.8766C526.247 34.1684 541.89 38.2213 551.954 38.4383C555.995 38.457 560.051 39.9182 562.978 42.7679C567.936 47.392 572.558 56.1105 562.635 68.2307L556.582 76.8754Z" fill="black"/>
<path d="M512.791 82.9465C513.147 84.4696 512.243 86.127 510.559 86.5208C508.874 86.9147 507.365 85.9826 506.855 84.4953C506.499 82.9721 507.403 81.3147 509.088 80.9209C510.772 80.527 512.435 81.4233 512.791 82.9465Z" fill="#222222"/>
<path d="M532.591 77.8263C532.947 79.3495 532.043 81.0068 530.358 81.4007C528.674 81.7946 527.164 80.8625 526.655 79.3751C526.299 77.852 527.203 76.1946 528.887 75.8007C530.536 75.2545 532.235 76.3031 532.591 77.8263Z" fill="#222222"/>
<path d="M535.05 69.7017C536.545 69.1913 537.45 67.534 537.093 66.0108C536.702 64.3353 535.039 63.439 533.354 63.8329L521.789 66.8589C520.104 67.2528 519.2 68.9101 519.592 70.5856C519.984 72.2611 521.647 73.1574 523.331 72.7635L534.897 69.7375C534.897 69.7375 535.05 69.7017 535.05 69.7017Z" fill="black"/>
<path d="M511.155 75.9351C512.65 75.4247 513.555 73.7674 513.199 72.2442C512.807 70.5687 511.144 69.6724 509.459 70.0663L501.992 71.9732C500.308 72.3671 499.404 74.0244 499.795 75.6999C500.187 77.3754 501.85 78.2717 503.535 77.8778L511.002 75.9709C511.002 75.9709 511.002 75.9709 511.155 75.9351Z" fill="black"/>
<path d="M519.039 83.4125L513.833 91.5377C513.246 92.4783 514.026 93.7417 515.133 93.6434L523.192 92.8835L519.039 83.4125Z" fill="#DCA58E"/>
<path d="M549.064 69.6393C549.064 69.6393 554.563 94.5388 537.912 93.774C507.58 92.5136 508.528 102.091 508.528 102.091C508.528 102.091 515.698 125.155 537.9 119.963C537.9 119.963 555.925 118.318 560.436 103.768C560.436 103.768 566.645 90.2676 556.695 67.0516L549.064 69.6393Z" fill="black"/>
<path d="M568.185 74.1858C569.021 78.7142 566.887 82.9351 563.335 83.4793C559.784 84.0235 556.147 80.8658 555.311 76.3375C554.475 71.8091 556.609 67.5882 560.161 67.044C563.68 66.364 567.243 69.6822 568.185 74.1858Z" fill="#E6B59C"/>
<path d="M437.305 177.426L470.485 266.121L362.612 266.121L333.678 187.281C331.948 182.432 335.408 177.426 340.597 177.426L437.305 177.426V177.426Z" fill="#F16A51"/>
<path d="M437.304 177.426L442.493 177.426C445.324 177.426 447.682 179.147 448.626 181.806L479.918 266.121L470.484 266.121L437.304 177.426Z" fill="#D1523A"/>
<path d="M370.791 274.57L470.487 274.57L470.487 265.967L362.929 265.967L362.929 266.749C362.929 271.129 366.388 274.57 370.791 274.57Z" fill="#D1523A"/>
<path d="M470.478 274.57L536.995 274.57C539.353 274.57 541.24 272.693 541.24 270.347C541.24 268 539.353 266.123 536.995 266.123L470.478 266.123L470.478 274.57Z" fill="#F16A51"/>
<path d="M87.3894 129.908C78.5094 129.908 70.5094 128.068 63.3894 124.388C56.2694 120.628 50.6694 115.428 46.5894 108.788C42.5894 102.068 40.5894 94.4683 40.5894 85.9883C40.5894 77.5083 42.5894 69.9483 46.5894 63.3083C50.6694 56.5883 56.2694 51.3883 63.3894 47.7083C70.5094 43.9483 78.5094 42.0683 87.3894 42.0683C95.5494 42.0683 102.829 43.5083 109.229 46.3883C115.629 49.2683 120.909 53.4283 125.069 58.8683L107.189 74.8283C101.989 68.2683 95.8694 64.9883 88.8294 64.9883C82.9094 64.9883 78.1494 66.9083 74.5494 70.7483C70.9494 74.5083 69.1494 79.5883 69.1494 85.9883C69.1494 92.3883 70.9494 97.5083 74.5494 101.348C78.1494 105.108 82.9094 106.988 88.8294 106.988C95.8694 106.988 101.989 103.708 107.189 97.1483L125.069 113.108C120.909 118.548 115.629 122.708 109.229 125.588C102.829 128.468 95.5494 129.908 87.3894 129.908ZM193.034 96.1883H173.234V115.388H151.634V96.1883H131.834V75.7883H151.634V56.5883H173.234V75.7883H193.034V96.1883ZM268.62 96.1883H248.82V115.388H227.22V96.1883H207.42V75.7883H227.22V56.5883H248.82V75.7883H268.62V96.1883Z" fill="white"/>
<path d="M50.376 153.176C51.912 153.176 53.32 153.549 54.6 154.296C55.9013 155.021 56.9253 156.077 57.672 157.464C58.44 158.851 58.824 160.451 58.824 162.264C58.824 164.077 58.44 165.677 57.672 167.064C56.9253 168.429 55.9013 169.485 54.6 170.232C53.32 170.957 51.912 171.32 50.376 171.32C48.4347 171.32 46.952 170.819 45.928 169.816V177.208H38.696V153.496H45.576V154.936C46.6213 153.763 48.2213 153.176 50.376 153.176ZM48.648 165.688C49.48 165.688 50.1627 165.389 50.696 164.792C51.2293 164.195 51.496 163.352 51.496 162.264C51.496 161.176 51.2293 160.333 50.696 159.736C50.1627 159.117 49.48 158.808 48.648 158.808C47.816 158.808 47.1333 159.117 46.6 159.736C46.0667 160.333 45.8 161.176 45.8 162.264C45.8 163.352 46.0667 164.195 46.6 164.792C47.1333 165.389 47.816 165.688 48.648 165.688ZM68.1833 153.176C71.2553 153.176 73.6019 153.869 75.2233 155.256C76.8446 156.621 77.6553 158.733 77.6553 161.592V171H70.9353V168.696C70.1033 170.445 68.4499 171.32 65.9753 171.32C64.5886 171.32 63.4046 171.085 62.4233 170.616C61.4633 170.125 60.7273 169.475 60.2153 168.664C59.7246 167.832 59.4793 166.904 59.4793 165.88C59.4793 164.152 60.1406 162.84 61.4633 161.944C62.7859 161.048 64.7913 160.6 67.4792 160.6H70.3913C70.1566 159.235 69.0579 158.552 67.0953 158.552C66.3059 158.552 65.5059 158.68 64.6953 158.936C63.8846 159.171 63.1913 159.501 62.6153 159.928L60.3113 155.16C61.3139 154.541 62.5193 154.061 63.9273 153.72C65.3566 153.357 66.7753 153.176 68.1833 153.176ZM68.1513 166.968C68.6633 166.968 69.1219 166.829 69.5273 166.552C69.9326 166.275 70.2313 165.859 70.4233 165.304V164.088H68.6313C67.1593 164.088 66.4233 164.579 66.4233 165.56C66.4233 165.965 66.5726 166.307 66.8713 166.584C67.1913 166.84 67.6179 166.968 68.1513 166.968ZM93.9783 161.912C94.9169 162.253 95.6423 162.755 96.1543 163.416C96.6876 164.056 96.9543 164.813 96.9543 165.688C96.9543 166.904 96.5276 167.949 95.6743 168.824C94.8209 169.677 93.6689 170.328 92.2183 170.776C90.7676 171.203 89.1569 171.416 87.3863 171.416C84.3783 171.416 81.6476 170.968 79.1943 170.072L81.0182 165.304C82.8316 165.965 84.8903 166.296 87.1943 166.296C87.9623 166.296 88.5703 166.2 89.0183 166.008C89.4663 165.816 89.6903 165.517 89.6903 165.112C89.6903 164.771 89.5836 164.536 89.3703 164.408C89.1783 164.259 88.8369 164.184 88.3463 164.184H84.3463V160.152H87.6743C88.2076 160.152 88.5916 160.077 88.8263 159.928C89.0823 159.779 89.2103 159.533 89.2103 159.192C89.2103 158.851 89.0396 158.595 88.6983 158.424C88.3569 158.253 87.7703 158.168 86.9383 158.168C85.3383 158.168 83.4716 158.531 81.3383 159.256L79.7063 154.68C82.4156 153.635 85.0076 153.112 87.4823 153.112C90.1063 153.112 92.2609 153.549 93.9463 154.424C95.6316 155.277 96.4743 156.525 96.4743 158.168C96.4743 158.936 96.2503 159.651 95.8022 160.312C95.3543 160.973 94.7463 161.507 93.9783 161.912ZM110.939 153.176C112.475 153.176 113.883 153.549 115.163 154.296C116.464 155.021 117.488 156.077 118.235 157.464C119.003 158.851 119.387 160.451 119.387 162.264C119.387 164.077 119.003 165.677 118.235 167.064C117.488 168.429 116.464 169.485 115.163 170.232C113.883 170.957 112.475 171.32 110.939 171.32C108.997 171.32 107.515 170.819 106.491 169.816V177.208H99.2585V153.496H106.139V154.936C107.184 153.763 108.784 153.176 110.939 153.176ZM109.211 165.688C110.043 165.688 110.725 165.389 111.259 164.792C111.792 164.195 112.059 163.352 112.059 162.264C112.059 161.176 111.792 160.333 111.259 159.736C110.725 159.117 110.043 158.808 109.211 158.808C108.379 158.808 107.696 159.117 107.163 159.736C106.629 160.333 106.363 161.176 106.363 162.264C106.363 163.352 106.629 164.195 107.163 164.792C107.696 165.389 108.379 165.688 109.211 165.688ZM128.746 153.176C131.818 153.176 134.164 153.869 135.786 155.256C137.407 156.621 138.218 158.733 138.218 161.592V171H131.498V168.696C130.666 170.445 129.012 171.32 126.538 171.32C125.151 171.32 123.967 171.085 122.986 170.616C122.026 170.125 121.29 169.475 120.778 168.664C120.287 167.832 120.042 166.904 120.042 165.88C120.042 164.152 120.703 162.84 122.026 161.944C123.348 161.048 125.354 160.6 128.042 160.6H130.954C130.719 159.235 129.62 158.552 127.658 158.552C126.868 158.552 126.068 158.68 125.258 158.936C124.447 159.171 123.754 159.501 123.178 159.928L120.874 155.16C121.876 154.541 123.082 154.061 124.49 153.72C125.919 153.357 127.338 153.176 128.746 153.176ZM128.714 166.968C129.226 166.968 129.684 166.829 130.09 166.552C130.495 166.275 130.794 165.859 130.986 165.304V164.088H129.194C127.722 164.088 126.986 164.579 126.986 165.56C126.986 165.965 127.135 166.307 127.434 166.584C127.754 166.84 128.18 166.968 128.714 166.968ZM152.717 155.448C155.298 155.448 157.303 156.141 158.733 157.528C160.162 158.915 160.877 160.824 160.877 163.256C160.877 164.899 160.429 166.349 159.533 167.608C158.658 168.845 157.453 169.805 155.917 170.488C154.381 171.171 152.663 171.512 150.765 171.512C147.65 171.512 145.133 170.584 143.213 168.728C141.314 166.872 140.365 164.013 140.365 160.152C140.365 152.877 143.607 148.653 150.093 147.48L158.797 145.912L159.757 151.832L152.397 153.144C150.669 153.443 149.421 153.901 148.653 154.52C147.906 155.139 147.447 156.045 147.277 157.24C148.77 156.045 150.583 155.448 152.717 155.448ZM150.765 166.168C151.639 166.168 152.311 165.88 152.781 165.304C153.271 164.728 153.517 164.035 153.517 163.224C153.517 162.328 153.261 161.635 152.749 161.144C152.258 160.653 151.597 160.408 150.765 160.408C149.911 160.408 149.229 160.664 148.717 161.176C148.205 161.667 147.949 162.36 147.949 163.256C147.949 164.109 148.205 164.813 148.717 165.368C149.25 165.901 149.933 166.168 150.765 166.168ZM172.126 171.32C170.185 171.32 168.436 170.936 166.878 170.168C165.342 169.379 164.137 168.301 163.262 166.936C162.388 165.549 161.95 163.981 161.95 162.232C161.95 160.483 162.388 158.925 163.262 157.56C164.137 156.173 165.342 155.096 166.878 154.328C168.436 153.56 170.185 153.176 172.126 153.176C174.089 153.176 175.838 153.56 177.374 154.328C178.932 155.096 180.137 156.173 180.99 157.56C181.865 158.925 182.302 160.483 182.302 162.232C182.302 163.981 181.865 165.549 180.99 166.936C180.137 168.301 178.932 169.379 177.374 170.168C175.838 170.936 174.089 171.32 172.126 171.32ZM172.126 165.688C172.958 165.688 173.641 165.389 174.174 164.792C174.708 164.173 174.974 163.32 174.974 162.232C174.974 161.144 174.708 160.301 174.174 159.704C173.641 159.107 172.958 158.808 172.126 158.808C171.294 158.808 170.612 159.107 170.078 159.704C169.545 160.301 169.278 161.144 169.278 162.232C169.278 163.32 169.545 164.173 170.078 164.792C170.612 165.389 171.294 165.688 172.126 165.688ZM200.491 159.128H195.147V171H187.947V159.128H182.603V153.496H200.491V159.128ZM220.363 153.496V171H213.163V165.08C212.139 165.677 210.795 165.976 209.131 165.976C206.592 165.976 204.704 165.411 203.467 164.28C202.23 163.128 201.611 161.315 201.611 158.84V153.496H208.811V158.36C208.811 159.235 208.971 159.843 209.291 160.184C209.632 160.525 210.155 160.696 210.859 160.696C211.712 160.696 212.48 160.536 213.163 160.216V153.496H220.363ZM223.759 153.496H230.959V161.4L237.007 153.496H243.663V171H236.463V163.064L230.447 171H223.759V153.496ZM255.648 165.176H254.272V171H247.04V153.496H254.272V159.64H255.84L259.68 153.496H267.296L261.664 161.88L267.648 171H259.136L255.648 165.176Z" fill="white"/>
</g>
<defs>
<clipPath id="clip0_1582_69">
<rect width="648" height="427" fill="white"/>
</clipPath>
</defs>
</svg>
